solid suplat
  facet normal -1.000000e+00 0.000000e+00 0.000000e+00
    outer loop
      vertex 0.000000e+00 4.619287e-01 -1.913549e-01
      vertex 0.000000e+00 -4.619287e-01 -1.913549e-01
      vertex 0.000000e+00 -5.000000e-01 6.123234e-17
    endloop
  endfacet
  facet normal 0.000000e+00 -9.807770e-01 -1.951318e-01
    outer loop
      vertex 3.000000e+00 -5.000000e-01 6.123234e-17
      vertex 0.000000e+00 -5.000000e-01 6.123234e-17
      vertex 0.000000e+00 -4.619287e-01 -1.913549e-01
    endloop
  endfacet
  facet normal -1.000000e+00 0.000000e+00 0.000000e+00
    outer loop
      vertex 0.000000e+00 5.000000e-01 -6.123234e-17
      vertex 0.000000e+00 4.619287e-01 -1.913549e-01
      vertex 0.000000e+00 -5.000000e-01 6.123234e-17
    endloop
  endfacet
  facet normal -1.000000e+00 0.000000e+00 0.000000e+00
    outer loop
      vertex 0.000000e+00 -4.619287e-01 1.913549e-01
      vertex 0.000000e+00 5.000000e-01 -6.123234e-17
      vertex 0.000000e+00 -5.000000e-01 6.123234e-17
    endloop
  endfacet
  facet normal 0.000000e+00 -9.807770e-01 1.951318e-01
    outer loop
      vertex 3.000000e+00 -4.619287e-01 1.913549e-01
      vertex 0.000000e+00 -4.619287e-01 1.913549e-01
      vertex 0.000000e+00 -5.000000e-01 6.123234e-17
    endloop
  endfacet
  facet normal 0.000000e+00 -9.807770e-01 1.951318e-01
    outer loop
      vertex 3.000000e+00 -4.619287e-01 1.913549e-01
      vertex 0.000000e+00 -5.000000e-01 6.123234e-17
      vertex 3.000000e+00 -5.000000e-01 6.123234e-17
    endloop
  endfacet
  facet normal -1.000000e+00 0.000000e+00 0.000000e+00
    outer loop
      vertex 0.000000e+00 3.535696e-01 -3.535325e-01
      vertex 0.000000e+00 -3.535696e-01 -3.535325e-01
      vertex 0.000000e+00 -4.619287e-01 -1.913549e-01
    endloop
  endfacet
  facet normal 0.000000e+00 -8.314802e-01 -5.555543e-01
    outer loop
      vertex 3.000000e+00 -4.619287e-01 -1.913549e-01
      vertex 0.000000e+00 -4.619287e-01 -1.913549e-01
      vertex 0.000000e+00 -3.535696e-01 -3.535325e-01
    endloop
  endfacet
  facet normal -1.000000e+00 0.000000e+00 0.000000e+00
    outer loop
      vertex 0.000000e+00 4.619287e-01 -1.913549e-01
      vertex 0.000000e+00 3.535696e-01 -3.535325e-01
      vertex 0.000000e+00 -4.619287e-01 -1.913549e-01
    endloop
  endfacet
  facet normal 0.000000e+00 -9.807770e-01 -1.951318e-01
    outer loop
      vertex 3.000000e+00 -4.619287e-01 -1.913549e-01
      vertex 3.000000e+00 -5.000000e-01 6.123234e-17
      vertex 0.000000e+00 -4.619287e-01 -1.913549e-01
    endloop
  endfacet
  facet normal -1.000000e+00 0.000000e+00 0.000000e+00
    outer loop
      vertex 0.000000e+00 1.913201e-01 -4.619475e-01
      vertex 0.000000e+00 -1.913201e-01 -4.619475e-01
      vertex 0.000000e+00 -3.535696e-01 -3.535325e-01
    endloop
  endfacet
  facet normal 0.000000e+00 -5.555821e-01 -8.314617e-01
    outer loop
      vertex 3.000000e+00 -3.535696e-01 -3.535325e-01
      vertex 0.000000e+00 -3.535696e-01 -3.535325e-01
      vertex 0.000000e+00 -1.913201e-01 -4.619475e-01
    endloop
  endfacet
  facet normal -1.000000e+00 0.000000e+00 0.000000e+00
    outer loop
      vertex 0.000000e+00 3.535696e-01 -3.535325e-01
      vertex 0.000000e+00 1.913201e-01 -4.619475e-01
      vertex 0.000000e+00 -3.535696e-01 -3.535325e-01
    endloop
  endfacet
  facet normal 0.000000e+00 -8.314802e-01 -5.555543e-01
    outer loop
      vertex 3.000000e+00 -4.619287e-01 -1.913549e-01
      vertex 0.000000e+00 -3.535696e-01 -3.535325e-01
      vertex 3.000000e+00 -3.535696e-01 -3.535325e-01
    endloop
  endfacet
  facet normal -1.000000e+00 0.000000e+00 0.000000e+00
    outer loop
      vertex 0.000000e+00 1.913201e-01 -4.619475e-01
      vertex 0.000000e+00 -3.295975e-17 -4.999941e-01
      vertex 0.000000e+00 -1.913201e-01 -4.619475e-01
    endloop
  endfacet
  facet normal 0.000000e+00 -1.950445e-01 -9.807944e-01
    outer loop
      vertex 3.000000e+00 -1.913201e-01 -4.619475e-01
      vertex 0.000000e+00 -1.913201e-01 -4.619475e-01
      vertex 0.000000e+00 -3.295975e-17 -4.999941e-01
    endloop
  endfacet
  facet normal 0.000000e+00 -5.555821e-01 -8.314617e-01
    outer loop
      vertex 3.000000e+00 -3.535696e-01 -3.535325e-01
      vertex 0.000000e+00 -1.913201e-01 -4.619475e-01
      vertex 3.000000e+00 -1.913201e-01 -4.619475e-01
    endloop
  endfacet
  facet normal 0.000000e+00 1.950445e-01 -9.807944e-01
    outer loop
      vertex 3.000000e+00 -3.295975e-17 -4.999941e-01
      vertex 0.000000e+00 -3.295975e-17 -4.999941e-01
      vertex 0.000000e+00 1.913201e-01 -4.619475e-01
    endloop
  endfacet
  facet normal 0.000000e+00 -1.950445e-01 -9.807944e-01
    outer loop
      vertex 3.000000e+00 -1.913201e-01 -4.619475e-01
      vertex 0.000000e+00 -3.295975e-17 -4.999941e-01
      vertex 3.000000e+00 -3.295975e-17 -4.999941e-01
    endloop
  endfacet
  facet normal 0.000000e+00 5.555821e-01 -8.314617e-01
    outer loop
      vertex 3.000000e+00 1.913201e-01 -4.619475e-01
      vertex 0.000000e+00 1.913201e-01 -4.619475e-01
      vertex 0.000000e+00 3.535696e-01 -3.535325e-01
    endloop
  endfacet
  facet normal 0.000000e+00 1.950445e-01 -9.807944e-01
    outer loop
      vertex 3.000000e+00 -3.295975e-17 -4.999941e-01
      vertex 0.000000e+00 1.913201e-01 -4.619475e-01
      vertex 3.000000e+00 1.913201e-01 -4.619475e-01
    endloop
  endfacet
  facet normal 0.000000e+00 8.314802e-01 -5.555543e-01
    outer loop
      vertex 3.000000e+00 3.535696e-01 -3.535325e-01
      vertex 0.000000e+00 3.535696e-01 -3.535325e-01
      vertex 0.000000e+00 4.619287e-01 -1.913549e-01
    endloop
  endfacet
  facet normal 0.000000e+00 5.555821e-01 -8.314617e-01
    outer loop
      vertex 3.000000e+00 1.913201e-01 -4.619475e-01
      vertex 0.000000e+00 3.535696e-01 -3.535325e-01
      vertex 3.000000e+00 3.535696e-01 -3.535325e-01
    endloop
  endfacet
  facet normal 0.000000e+00 9.807770e-01 -1.951318e-01
    outer loop
      vertex 3.000000e+00 4.619287e-01 -1.913549e-01
      vertex 0.000000e+00 4.619287e-01 -1.913549e-01
      vertex 0.000000e+00 5.000000e-01 -6.123234e-17
    endloop
  endfacet
  facet normal 0.000000e+00 8.314802e-01 -5.555543e-01
    outer loop
      vertex 3.000000e+00 3.535696e-01 -3.535325e-01
      vertex 0.000000e+00 4.619287e-01 -1.913549e-01
      vertex 3.000000e+00 4.619287e-01 -1.913549e-01
    endloop
  endfacet
  facet normal -1.000000e+00 0.000000e+00 0.000000e+00
    outer loop
      vertex 0.000000e+00 -4.619287e-01 1.913549e-01
      vertex 0.000000e+00 4.619287e-01 1.913549e-01
      vertex 0.000000e+00 5.000000e-01 -6.123234e-17
    endloop
  endfacet
  facet normal 0.000000e+00 9.807770e-01 1.951318e-01
    outer loop
      vertex 3.000000e+00 5.000000e-01 -6.123234e-17
      vertex 0.000000e+00 5.000000e-01 -6.123234e-17
      vertex 0.000000e+00 4.619287e-01 1.913549e-01
    endloop
  endfacet
  facet normal 0.000000e+00 9.807770e-01 -1.951318e-01
    outer loop
      vertex 3.000000e+00 4.619287e-01 -1.913549e-01
      vertex 0.000000e+00 5.000000e-01 -6.123234e-17
      vertex 3.000000e+00 5.000000e-01 -6.123234e-17
    endloop
  endfacet
  facet normal -1.000000e+00 0.000000e+00 0.000000e+00
    outer loop
      vertex 0.000000e+00 -3.535696e-01 3.535325e-01
      vertex 0.000000e+00 3.535696e-01 3.535325e-01
      vertex 0.000000e+00 4.619287e-01 1.913549e-01
    endloop
  endfacet
  facet normal 0.000000e+00 8.314802e-01 5.555543e-01
    outer loop
      vertex 3.000000e+00 4.619287e-01 1.913549e-01
      vertex 0.000000e+00 4.619287e-01 1.913549e-01
      vertex 0.000000e+00 3.535696e-01 3.535325e-01
    endloop
  endfacet
  facet normal -1.000000e+00 0.000000e+00 0.000000e+00
    outer loop
      vertex 0.000000e+00 -4.619287e-01 1.913549e-01
      vertex 0.000000e+00 -3.535696e-01 3.535325e-01
      vertex 0.000000e+00 4.619287e-01 1.913549e-01
    endloop
  endfacet
  facet normal 0.000000e+00 9.807770e-01 1.951318e-01
    outer loop
      vertex 3.000000e+00 5.000000e-01 -6.123234e-17
      vertex 0.000000e+00 4.619287e-01 1.913549e-01
      vertex 3.000000e+00 4.619287e-01 1.913549e-01
    endloop
  endfacet
  facet normal -1.000000e+00 0.000000e+00 0.000000e+00
    outer loop
      vertex 0.000000e+00 -1.913201e-01 4.619475e-01
      vertex 0.000000e+00 1.913201e-01 4.619475e-01
      vertex 0.000000e+00 3.535696e-01 3.535325e-01
    endloop
  endfacet
  facet normal 0.000000e+00 5.555821e-01 8.314617e-01
    outer loop
      vertex 3.000000e+00 3.535696e-01 3.535325e-01
      vertex 0.000000e+00 3.535696e-01 3.535325e-01
      vertex 0.000000e+00 1.913201e-01 4.619475e-01
    endloop
  endfacet
  facet normal -1.000000e+00 0.000000e+00 0.000000e+00
    outer loop
      vertex 0.000000e+00 -3.535696e-01 3.535325e-01
      vertex 0.000000e+00 -1.913201e-01 4.619475e-01
      vertex 0.000000e+00 3.535696e-01 3.535325e-01
    endloop
  endfacet
  facet normal 0.000000e+00 8.314802e-01 5.555543e-01
    outer loop
      vertex 3.000000e+00 4.619287e-01 1.913549e-01
      vertex 0.000000e+00 3.535696e-01 3.535325e-01
      vertex 3.000000e+00 3.535696e-01 3.535325e-01
    endloop
  endfacet
  facet normal -1.000000e+00 0.000000e+00 0.000000e+00
    outer loop
      vertex 0.000000e+00 -1.913201e-01 4.619475e-01
      vertex 0.000000e+00 9.020562e-17 4.999941e-01
      vertex 0.000000e+00 1.913201e-01 4.619475e-01
    endloop
  endfacet
  facet normal 0.000000e+00 1.950445e-01 9.807944e-01
    outer loop
      vertex 3.000000e+00 1.913201e-01 4.619475e-01
      vertex 0.000000e+00 1.913201e-01 4.619475e-01
      vertex 0.000000e+00 9.020562e-17 4.999941e-01
    endloop
  endfacet
  facet normal 0.000000e+00 5.555821e-01 8.314617e-01
    outer loop
      vertex 3.000000e+00 3.535696e-01 3.535325e-01
      vertex 0.000000e+00 1.913201e-01 4.619475e-01
      vertex 3.000000e+00 1.913201e-01 4.619475e-01
    endloop
  endfacet
  facet normal 0.000000e+00 -1.950445e-01 9.807944e-01
    outer loop
      vertex 3.000000e+00 9.020562e-17 4.999941e-01
      vertex 0.000000e+00 9.020562e-17 4.999941e-01
      vertex 0.000000e+00 -1.913201e-01 4.619475e-01
    endloop
  endfacet
  facet normal 0.000000e+00 1.950445e-01 9.807944e-01
    outer loop
      vertex 3.000000e+00 1.913201e-01 4.619475e-01
      vertex 0.000000e+00 9.020562e-17 4.999941e-01
      vertex 3.000000e+00 9.020562e-17 4.999941e-01
    endloop
  endfacet
  facet normal 0.000000e+00 -5.555821e-01 8.314617e-01
    outer loop
      vertex 3.000000e+00 -1.913201e-01 4.619475e-01
      vertex 0.000000e+00 -1.913201e-01 4.619475e-01
      vertex 0.000000e+00 -3.535696e-01 3.535325e-01
    endloop
  endfacet
  facet normal 0.000000e+00 -1.950445e-01 9.807944e-01
    outer loop
      vertex 3.000000e+00 9.020562e-17 4.999941e-01
      vertex 0.000000e+00 -1.913201e-01 4.619475e-01
      vertex 3.000000e+00 -1.913201e-01 4.619475e-01
    endloop
  endfacet
  facet normal 0.000000e+00 -8.314802e-01 5.555543e-01
    outer loop
      vertex 3.000000e+00 -3.535696e-01 3.535325e-01
      vertex 0.000000e+00 -3.535696e-01 3.535325e-01
      vertex 0.000000e+00 -4.619287e-01 1.913549e-01
    endloop
  endfacet
  facet normal 0.000000e+00 -5.555821e-01 8.314617e-01
    outer loop
      vertex 3.000000e+00 -1.913201e-01 4.619475e-01
      vertex 0.000000e+00 -3.535696e-01 3.535325e-01
      vertex 3.000000e+00 -3.535696e-01 3.535325e-01
    endloop
  endfacet
  facet normal 0.000000e+00 -8.314802e-01 5.555543e-01
    outer loop
      vertex 3.000000e+00 -3.535696e-01 3.535325e-01
      vertex 0.000000e+00 -4.619287e-01 1.913549e-01
      vertex 3.000000e+00 -4.619287e-01 1.913549e-01
    endloop
  endfacet
  facet normal 1.000000e+00 0.000000e+00 0.000000e+00
    outer loop
      vertex 3.000000e+00 4.619287e-01 1.913549e-01
      vertex 3.000000e+00 -4.619287e-01 1.913549e-01
      vertex 3.000000e+00 -5.000000e-01 6.123234e-17
    endloop
  endfacet
  facet normal 1.000000e+00 0.000000e+00 0.000000e+00
    outer loop
      vertex 3.000000e+00 5.000000e-01 -6.123234e-17
      vertex 3.000000e+00 4.619287e-01 1.913549e-01
      vertex 3.000000e+00 -5.000000e-01 6.123234e-17
    endloop
  endfacet
  facet normal 1.000000e+00 0.000000e+00 0.000000e+00
    outer loop
      vertex 3.000000e+00 -4.619287e-01 -1.913549e-01
      vertex 3.000000e+00 5.000000e-01 -6.123234e-17
      vertex 3.000000e+00 -5.000000e-01 6.123234e-17
    endloop
  endfacet
  facet normal 1.000000e+00 0.000000e+00 0.000000e+00
    outer loop
      vertex 3.000000e+00 3.535696e-01 3.535325e-01
      vertex 3.000000e+00 -3.535696e-01 3.535325e-01
      vertex 3.000000e+00 -4.619287e-01 1.913549e-01
    endloop
  endfacet
  facet normal 1.000000e+00 0.000000e+00 0.000000e+00
    outer loop
      vertex 3.000000e+00 4.619287e-01 1.913549e-01
      vertex 3.000000e+00 3.535696e-01 3.535325e-01
      vertex 3.000000e+00 -4.619287e-01 1.913549e-01
    endloop
  endfacet
  facet normal 1.000000e+00 0.000000e+00 0.000000e+00
    outer loop
      vertex 3.000000e+00 1.913201e-01 4.619475e-01
      vertex 3.000000e+00 -1.913201e-01 4.619475e-01
      vertex 3.000000e+00 -3.535696e-01 3.535325e-01
    endloop
  endfacet
  facet normal 1.000000e+00 0.000000e+00 0.000000e+00
    outer loop
      vertex 3.000000e+00 3.535696e-01 3.535325e-01
      vertex 3.000000e+00 1.913201e-01 4.619475e-01
      vertex 3.000000e+00 -3.535696e-01 3.535325e-01
    endloop
  endfacet
  facet normal 1.000000e+00 0.000000e+00 0.000000e+00
    outer loop
      vertex 3.000000e+00 1.913201e-01 4.619475e-01
      vertex 3.000000e+00 9.020562e-17 4.999941e-01
      vertex 3.000000e+00 -1.913201e-01 4.619475e-01
    endloop
  endfacet
  facet normal 1.000000e+00 0.000000e+00 0.000000e+00
    outer loop
      vertex 3.000000e+00 -4.619287e-01 -1.913549e-01
      vertex 3.000000e+00 4.619287e-01 -1.913549e-01
      vertex 3.000000e+00 5.000000e-01 -6.123234e-17
    endloop
  endfacet
  facet normal 1.000000e+00 0.000000e+00 0.000000e+00
    outer loop
      vertex 3.000000e+00 -3.535696e-01 -3.535325e-01
      vertex 3.000000e+00 3.535696e-01 -3.535325e-01
      vertex 3.000000e+00 4.619287e-01 -1.913549e-01
    endloop
  endfacet
  facet normal 1.000000e+00 0.000000e+00 0.000000e+00
    outer loop
      vertex 3.000000e+00 -4.619287e-01 -1.913549e-01
      vertex 3.000000e+00 -3.535696e-01 -3.535325e-01
      vertex 3.000000e+00 4.619287e-01 -1.913549e-01
    endloop
  endfacet
  facet normal 1.000000e+00 0.000000e+00 0.000000e+00
    outer loop
      vertex 3.000000e+00 -1.913201e-01 -4.619475e-01
      vertex 3.000000e+00 1.913201e-01 -4.619475e-01
      vertex 3.000000e+00 3.535696e-01 -3.535325e-01
    endloop
  endfacet
  facet normal 1.000000e+00 0.000000e+00 0.000000e+00
    outer loop
      vertex 3.000000e+00 -3.535696e-01 -3.535325e-01
      vertex 3.000000e+00 -1.913201e-01 -4.619475e-01
      vertex 3.000000e+00 3.535696e-01 -3.535325e-01
    endloop
  endfacet
  facet normal 1.000000e+00 0.000000e+00 0.000000e+00
    outer loop
      vertex 3.000000e+00 -1.913201e-01 -4.619475e-01
      vertex 3.000000e+00 -3.295975e-17 -4.999941e-01
      vertex 3.000000e+00 1.913201e-01 -4.619475e-01
    endloop
  endfacet
endsolid suplat
